<svg version="1.1" id="Layer_1" xmlns="http://www.w3.org/2000/svg" xmlns:xlink="http://www.w3.org/1999/xlink" x="0px" y="0px"
	 width="100%" viewBox="0 0 512 512" enable-background="new 0 0 512 512" xml:space="preserve">
<path fill="#000000" opacity="1.000000" stroke="none" 
	d="
M513.000000,185.000000 
	C513.000000,294.640015 513.000000,403.780029 513.000000,512.960022 
	C342.401642,512.960022 171.803268,512.960022 1.102453,512.960022 
	C1.102453,342.443359 1.102453,171.886612 1.102453,1.164938 
	C171.666534,1.164938 342.333252,1.164938 513.000000,1.164938 
	C513.000000,62.196690 513.000000,123.348343 513.000000,185.000000 
M96.999802,48.503593 
	C96.999802,171.248840 96.999802,293.994080 96.999802,416.685669 
	C98.192741,416.850311 98.677315,416.975708 99.161903,416.975769 
	C200.821365,416.988831 302.480835,417.008545 404.140289,416.968140 
	C412.240692,416.964935 416.976288,411.975616 416.979340,403.624542 
	C417.011078,316.963989 417.014252,230.303391 416.902222,143.642944 
	C416.899780,141.756393 415.904205,139.421860 414.584320,138.059082 
	C405.889832,129.082184 396.926819,120.365967 388.178375,111.440269 
	C386.177673,109.399017 384.632202,108.880905 381.779816,110.134689 
	C369.278137,115.629822 355.616180,112.947464 346.294556,103.559479 
	C336.961060,94.159515 334.425293,80.651649 339.913208,68.022530 
	C341.029938,65.452637 340.792847,63.969025 338.791718,62.022469 
	C330.191437,53.656754 321.673737,45.200104 313.341522,36.568542 
	C310.830078,33.966896 308.318573,32.910637 304.663086,32.916794 
	C237.334686,33.030174 170.006042,32.999786 102.677452,32.999786 
	C100.905960,32.999786 99.134476,32.999786 96.999802,32.999786 
	C96.999802,38.232914 96.999802,42.869072 96.999802,48.503593 
M80.999763,389.500000 
	C80.999763,270.789673 80.999763,152.079330 80.999763,33.500576 
	C60.163906,30.025642 48.699707,44.343449 48.762127,61.013084 
	C49.208179,180.133453 49.000275,299.256256 49.000267,418.378296 
	C49.000267,420.283234 49.000267,422.188171 49.000267,425.172241 
	C58.957626,417.620453 69.586929,416.454895 80.999763,417.032379 
	C80.999763,407.745300 80.999763,399.122650 80.999763,389.500000 
M317.500000,464.999756 
	C277.334198,464.999756 237.168381,465.000183 197.002579,464.998260 
	C195.502808,464.998199 193.992279,465.086792 192.505280,464.942780 
	C188.101105,464.516235 185.061111,461.261719 185.027206,457.061737 
	C184.993286,452.859528 188.014221,449.514740 192.373718,449.062103 
	C193.858810,448.907928 195.370895,449.001953 196.870636,449.001923 
	C257.702637,448.999969 318.534607,449.000275 379.366608,449.000275 
	C381.143280,449.000275 382.919922,449.000244 384.739868,449.000244 
	C384.739868,443.426605 384.739868,438.356110 384.739868,432.999756 
	C382.679443,432.999756 380.876129,432.999756 379.072845,432.999756 
	C317.574219,432.999756 256.075562,432.999725 194.576935,432.999756 
	C154.577820,432.999786 114.578636,433.034790 74.579643,432.964508 
	C68.152328,432.953217 62.407085,434.562195 57.497383,438.744598 
	C49.819820,445.284851 47.034340,455.657227 50.360607,465.016815 
	C53.842541,474.814423 62.819138,480.983826 73.947548,480.986298 
	C176.611938,481.009247 279.276337,481.000549 381.940735,480.990845 
	C382.883148,480.990753 383.825562,480.852936 384.713531,480.783661 
	C384.713531,475.373352 384.713531,470.303131 384.713531,464.999756 
	C362.451782,464.999756 340.475891,464.999756 317.500000,464.999756 
M417.002075,61.500599 
	C417.001862,56.502331 417.044098,51.503616 416.992096,46.505886 
	C416.900543,37.709293 412.201233,33.028530 403.305847,33.011940 
	C380.980347,32.970299 358.654724,32.992516 336.329163,33.016079 
	C335.325226,33.017136 334.321533,33.282654 332.761902,33.503819 
	C338.687958,39.398815 344.257233,44.673141 349.487640,50.264484 
	C351.783447,52.718719 353.526520,52.987179 356.679047,51.634407 
	C375.103668,43.728333 395.719238,54.520252 400.185699,73.993835 
	C402.071625,82.216339 400.372559,89.799652 397.333557,96.039223 
	C404.224304,102.976639 410.686310,109.482391 417.002075,115.840935 
	C417.002075,98.421356 417.002075,80.460831 417.002075,61.500599 
M465.831635,189.633865 
	C468.376465,185.629242 470.921295,181.624619 473.632721,177.357819 
	C459.809113,177.357819 446.497101,177.357819 433.363770,177.357819 
	C433.363770,188.091309 433.363770,198.462646 433.363770,208.672089 
	C446.894531,208.672089 460.058533,208.672089 473.810730,208.672089 
	C471.387482,205.021454 468.929443,202.044205 467.325317,198.661972 
	C466.138000,196.158691 466.061890,193.128372 465.831635,189.633865 
M384.060760,75.773224 
	C381.556763,69.229233 376.771179,65.584114 369.833557,65.059692 
	C363.051819,64.547043 356.588165,68.827614 354.121735,75.114151 
	C351.592682,81.560295 353.406647,88.681564 358.721191,93.170586 
	C364.055634,97.676422 371.346802,98.260757 377.283203,94.658211 
	C383.436432,90.924080 385.980042,84.336136 384.060760,75.773224 
M404.527069,432.999084 
	C401.554047,432.591003 400.914520,434.129211 400.955627,436.791351 
	C401.078857,444.771545 400.999146,452.754852 400.998871,460.736969 
	C400.998657,467.339935 400.998810,473.942871 400.998810,480.441864 
	C411.007507,481.892975 416.898865,477.076233 416.978485,467.784546 
	C417.069672,457.142548 417.013306,446.499084 416.987000,435.856354 
	C416.983154,434.297302 416.790863,432.738739 416.686584,431.191956 
	C412.578125,431.848724 409.000977,432.420593 404.527069,432.999084 
M432.998657,101.671219 
	C432.998657,110.596146 432.998657,119.521065 432.998657,128.718323 
	C441.392670,128.718323 449.234589,128.718323 457.696960,128.718323 
	C456.189667,126.348480 455.002502,124.412186 453.747711,122.520744 
	C447.422424,112.986435 447.426300,112.997223 453.624542,103.640617 
	C454.952606,101.635834 456.178406,99.563316 457.773804,97.004837 
	C450.003174,97.004837 443.035217,97.108536 436.072815,96.955940 
	C433.114746,96.891090 432.831879,98.493355 432.998657,101.671219 
z"/>
<path fill="#E82F3E" opacity="1.000000" stroke="none" 
	d="
M96.999802,48.004410 
	C96.999802,42.869072 96.999802,38.232914 96.999802,32.999786 
	C99.134476,32.999786 100.905960,32.999786 102.677452,32.999786 
	C170.006042,32.999786 237.334686,33.030174 304.663086,32.916794 
	C308.318573,32.910637 310.830078,33.966896 313.341522,36.568542 
	C321.673737,45.200104 330.191437,53.656754 338.791718,62.022469 
	C340.792847,63.969025 341.029938,65.452637 339.913208,68.022530 
	C334.425293,80.651649 336.961060,94.159515 346.294556,103.559479 
	C355.616180,112.947464 369.278137,115.629822 381.779816,110.134689 
	C384.632202,108.880905 386.177673,109.399017 388.178375,111.440269 
	C396.926819,120.365967 405.889832,129.082184 414.584320,138.059082 
	C415.904205,139.421860 416.899780,141.756393 416.902222,143.642944 
	C417.014252,230.303391 417.011078,316.963989 416.979340,403.624542 
	C416.976288,411.975616 412.240692,416.964935 404.140289,416.968140 
	C302.480835,417.008545 200.821365,416.988831 99.161903,416.975769 
	C98.677315,416.975708 98.192741,416.850311 96.999802,416.685669 
	C96.999802,293.994080 96.999802,171.248840 96.999802,48.004410 
M248.171509,81.576065 
	C226.873718,84.485558 209.651306,94.523003 197.861008,112.433670 
	C193.813751,118.581871 189.692245,121.198769 182.482925,122.089996 
	C150.128128,126.089737 125.701736,151.451309 121.470894,185.956604 
	C117.908714,215.008408 133.852310,245.638916 164.177505,258.797028 
	C168.177734,260.532715 169.097275,262.552460 169.073486,266.497589 
	C168.921783,291.662201 168.990158,316.828186 168.999680,341.993713 
	C169.002899,350.520935 171.473267,352.999176 179.982208,353.000305 
	C231.313217,353.007080 282.644226,353.006866 333.975250,353.000519 
	C342.503998,352.999451 344.996399,350.520142 344.999786,342.027161 
	C345.010345,315.695007 345.083923,289.362366 344.916626,263.031281 
	C344.891754,259.113708 345.977051,256.927185 349.504761,254.878067 
	C375.635498,239.699738 389.290009,209.549271 383.823669,179.832932 
	C378.503296,150.909882 355.211090,127.446144 326.346283,122.312340 
	C322.996918,121.716637 321.278900,120.390533 319.557983,117.568245 
	C303.469177,91.182526 279.884552,79.182472 248.171509,81.576065 
M309.491150,393.002197 
	C312.822388,393.001984 316.154114,393.033966 319.484650,392.985657 
	C320.806641,392.966461 322.190186,392.984436 323.434540,392.613007 
	C327.237885,391.477844 329.716766,387.475861 328.866608,383.624237 
	C327.868439,379.102295 324.856689,376.981812 320.215790,376.987915 
	C299.895294,377.014587 279.574677,376.990082 259.254120,377.002777 
	C252.534073,377.006989 248.930069,379.895142 249.014999,385.130707 
	C249.099060,390.313568 252.656647,392.994476 259.524994,392.998779 
	C275.848053,393.009033 292.171143,393.002167 309.491150,393.002197 
M208.547852,376.994598 
	C206.049805,376.996643 203.546890,376.899506 201.054764,377.021973 
	C196.291656,377.256042 193.100647,380.415009 193.011765,384.824951 
	C192.918564,389.448120 196.192535,392.874023 201.213287,392.963318 
	C209.038040,393.102539 216.868668,393.095581 224.693756,392.966492 
	C229.726791,392.883453 233.031006,389.507751 232.983276,384.909149 
	C232.935516,380.308685 229.635956,377.137451 224.520584,377.022400 
	C219.526978,376.910126 214.528915,376.995819 208.547852,376.994598 
z"/>
<path fill="#961B20" opacity="1.000000" stroke="none" 
	d="
M80.999763,390.000000 
	C80.999763,399.122650 80.999763,407.745300 80.999763,417.032379 
	C69.586929,416.454895 58.957626,417.620453 49.000267,425.172241 
	C49.000267,422.188171 49.000267,420.283234 49.000267,418.378296 
	C49.000275,299.256256 49.208179,180.133453 48.762127,61.013084 
	C48.699707,44.343449 60.163906,30.025642 80.999763,33.500576 
	C80.999763,152.079330 80.999763,270.789673 80.999763,390.000000 
z"/>
<path fill="#EAEAE8" opacity="1.000000" stroke="none" 
	d="
M318.000000,464.999756 
	C340.475891,464.999756 362.451782,464.999756 384.713531,464.999756 
	C384.713531,470.303131 384.713531,475.373352 384.713531,480.783661 
	C383.825562,480.852936 382.883148,480.990753 381.940735,480.990845 
	C279.276337,481.000549 176.611938,481.009247 73.947548,480.986298 
	C62.819138,480.983826 53.842541,474.814423 50.360607,465.016815 
	C47.034340,455.657227 49.819820,445.284851 57.497383,438.744598 
	C62.407085,434.562195 68.152328,432.953217 74.579643,432.964508 
	C114.578636,433.034790 154.577820,432.999786 194.576935,432.999756 
	C256.075562,432.999725 317.574219,432.999756 379.072845,432.999756 
	C380.876129,432.999756 382.679443,432.999756 384.739868,432.999756 
	C384.739868,438.356110 384.739868,443.426605 384.739868,449.000244 
	C382.919922,449.000244 381.143280,449.000275 379.366608,449.000275 
	C318.534607,449.000275 257.702637,448.999969 196.870636,449.001923 
	C195.370895,449.001953 193.858810,448.907928 192.373718,449.062103 
	C188.014221,449.514740 184.993286,452.859528 185.027206,457.061737 
	C185.061111,461.261719 188.101105,464.516235 192.505280,464.942780 
	C193.992279,465.086792 195.502808,464.998199 197.002579,464.998260 
	C237.168381,465.000183 277.334198,464.999756 318.000000,464.999756 
M84.509933,465.003998 
	C96.491447,465.002045 108.473549,465.068817 120.454201,464.965912 
	C125.570160,464.921967 128.901428,461.681702 128.975815,457.124451 
	C129.050262,452.562927 125.718330,449.076904 120.711441,449.043427 
	C104.903214,448.937653 89.093384,448.937683 73.285156,449.043427 
	C68.268333,449.076965 64.952515,452.545013 65.022720,457.118439 
	C65.092674,461.675537 68.421066,464.814728 73.531693,464.978333 
	C76.856544,465.084747 80.187447,465.001984 84.509933,465.003998 
M150.469223,449.364380 
	C146.243164,451.206238 144.134796,454.459564 145.270721,458.939453 
	C146.402344,463.402374 149.823959,465.227112 154.386536,465.028229 
	C156.715302,464.926697 159.062149,465.131989 161.381790,464.952484 
	C165.801315,464.610443 168.881866,461.374634 168.984863,457.193817 
	C169.092987,452.804596 165.924576,449.305817 161.277954,449.053741 
	C157.959274,448.873718 154.619064,449.090302 150.469223,449.364380 
z"/>
<path fill="#FAB440" opacity="1.000000" stroke="none" 
	d="
M417.002075,62.000458 
	C417.002075,80.460831 417.002075,98.421356 417.002075,115.840935 
	C410.686310,109.482391 404.224304,102.976639 397.333557,96.039223 
	C400.372559,89.799652 402.071625,82.216339 400.185699,73.993835 
	C395.719238,54.520252 375.103668,43.728333 356.679047,51.634407 
	C353.526520,52.987179 351.783447,52.718719 349.487640,50.264484 
	C344.257233,44.673141 338.687958,39.398815 332.761902,33.503819 
	C334.321533,33.282654 335.325226,33.017136 336.329163,33.016079 
	C358.654724,32.992516 380.980347,32.970299 403.305847,33.011940 
	C412.201233,33.028530 416.900543,37.709293 416.992096,46.505886 
	C417.044098,51.503616 417.001862,56.502331 417.002075,62.000458 
z"/>
<path fill="#009CF6" opacity="1.000000" stroke="none" 
	d="
M465.661194,189.983368 
	C466.061890,193.128372 466.138000,196.158691 467.325317,198.661972 
	C468.929443,202.044205 471.387482,205.021454 473.810730,208.672089 
	C460.058533,208.672089 446.894531,208.672089 433.363770,208.672089 
	C433.363770,198.462646 433.363770,188.091309 433.363770,177.357819 
	C446.497101,177.357819 459.809113,177.357819 473.632721,177.357819 
	C470.921295,181.624619 468.376465,185.629242 465.661194,189.983368 
z"/>
<path fill="#E59A2C" opacity="1.000000" stroke="none" 
	d="
M384.167542,76.162277 
	C385.980042,84.336136 383.436432,90.924080 377.283203,94.658211 
	C371.346802,98.260757 364.055634,97.676422 358.721191,93.170586 
	C353.406647,88.681564 351.592682,81.560295 354.121735,75.114151 
	C356.588165,68.827614 363.051819,64.547043 369.833557,65.059692 
	C376.771179,65.584114 381.556763,69.229233 384.167542,76.162277 
z"/>
<path fill="#951B20" opacity="1.000000" stroke="none" 
	d="
M404.975433,432.995758 
	C409.000977,432.420593 412.578125,431.848724 416.686584,431.191956 
	C416.790863,432.738739 416.983154,434.297302 416.987000,435.856354 
	C417.013306,446.499084 417.069672,457.142548 416.978485,467.784546 
	C416.898865,477.076233 411.007507,481.892975 400.998810,480.441864 
	C400.998810,473.942871 400.998657,467.339935 400.998871,460.736969 
	C400.999146,452.754852 401.078857,444.771545 400.955627,436.791351 
	C400.914520,434.129211 401.554047,432.591003 404.975433,432.995758 
z"/>
<path fill="#02A337" opacity="1.000000" stroke="none" 
	d="
M432.999207,101.194145 
	C432.831879,98.493355 433.114746,96.891090 436.072815,96.955940 
	C443.035217,97.108536 450.003174,97.004837 457.773804,97.004837 
	C456.178406,99.563316 454.952606,101.635834 453.624542,103.640617 
	C447.426300,112.997223 447.422424,112.986435 453.747711,122.520744 
	C455.002502,124.412186 456.189667,126.348480 457.696960,128.718323 
	C449.234589,128.718323 441.392670,128.718323 432.998657,128.718323 
	C432.998657,119.521065 432.998657,110.596146 432.999207,101.194145 
z"/>
<path fill="#020101" opacity="1.000000" stroke="none" 
	d="
M248.616119,81.493629 
	C279.884552,79.182472 303.469177,91.182526 319.557983,117.568245 
	C321.278900,120.390533 322.996918,121.716637 326.346283,122.312340 
	C355.211090,127.446144 378.503296,150.909882 383.823669,179.832932 
	C389.290009,209.549271 375.635498,239.699738 349.504761,254.878067 
	C345.977051,256.927185 344.891754,259.113708 344.916626,263.031281 
	C345.083923,289.362366 345.010345,315.695007 344.999786,342.027161 
	C344.996399,350.520142 342.503998,352.999451 333.975250,353.000519 
	C282.644226,353.006866 231.313217,353.007080 179.982208,353.000305 
	C171.473267,352.999176 169.002899,350.520935 168.999680,341.993713 
	C168.990158,316.828186 168.921783,291.662201 169.073486,266.497589 
	C169.097275,262.552460 168.177734,260.532715 164.177505,258.797028 
	C133.852310,245.638916 117.908714,215.008408 121.470894,185.956604 
	C125.701736,151.451309 150.128128,126.089737 182.482925,122.089996 
	C189.692245,121.198769 193.813751,118.581871 197.861008,112.433670 
	C209.651306,94.523003 226.873718,84.485558 248.616119,81.493629 
M358.765991,225.220734 
	C382.772583,188.646271 361.651978,142.377136 318.488770,137.372162 
	C312.950012,136.729889 309.985352,134.459366 307.711029,129.490829 
	C296.339661,104.648811 268.869446,91.850159 242.466858,99.006302 
	C225.767319,103.532539 213.526459,113.793114 206.330948,129.489853 
	C203.704468,135.219437 200.279938,137.693130 194.047028,137.122772 
	C190.787460,136.824493 187.402191,137.351059 184.127457,137.854645 
	C158.783325,141.751999 139.467850,162.562820 137.174850,188.329269 
	C134.918137,213.688202 150.906601,238.020416 175.076675,246.010452 
	C184.637512,249.171051 185.000946,249.676758 185.001144,259.831207 
	C185.001434,274.771851 185.001236,289.712494 185.001236,304.758179 
	C193.200394,304.758179 200.934189,304.758179 209.010056,304.758179 
	C209.010056,296.727173 208.967194,288.931976 209.027222,281.137604 
	C209.059647,276.928284 211.313721,274.139008 215.310745,273.225037 
	C219.111267,272.356018 222.338181,273.807770 223.986893,277.427094 
	C224.773254,279.153351 224.929718,281.272064 224.958496,283.219116 
	C225.065552,290.461700 225.001205,297.706818 225.001205,304.794617 
	C233.364594,304.794617 240.981842,304.794617 248.998795,304.794617 
	C248.998795,297.478180 248.982086,290.358856 249.003616,283.239655 
	C249.023865,276.540253 251.956329,272.902008 257.183044,273.023529 
	C262.190399,273.139923 264.972992,276.703247 264.995361,283.115509 
	C265.020660,290.368439 265.001190,297.621552 265.001190,304.654297 
	C273.413513,304.654297 281.151398,304.654297 288.998840,304.654297 
	C288.998840,297.154480 288.972809,289.998535 289.006683,282.842896 
	C289.036438,276.562714 292.023529,272.969360 297.080017,273.023499 
	C302.117920,273.077454 304.969208,276.641144 304.994476,283.012482 
	C305.023315,290.274597 305.001160,297.536926 305.001160,304.690735 
	C313.339294,304.690735 321.075165,304.690735 328.998871,304.690735 
	C328.998871,287.908112 329.140045,271.430878 328.918121,254.958511 
	C328.845764,249.588043 330.710175,246.151230 335.689636,244.054245 
	C344.953949,240.152771 352.429871,233.926514 358.765991,225.220734 
M205.500214,336.996796 
	C246.566254,336.996796 287.632294,336.996796 328.702484,336.996796 
	C328.702484,331.382507 328.702484,326.320435 328.702484,321.276672 
	C280.706207,321.276672 233.004761,321.276672 185.297424,321.276672 
	C185.297424,326.617249 185.297424,331.679352 185.297424,336.996796 
	C191.892456,336.996796 198.196457,336.996796 205.500214,336.996796 
z"/>
<path fill="#010000" opacity="1.000000" stroke="none" 
	d="
M308.992676,393.002197 
	C292.171143,393.002167 275.848053,393.009033 259.524994,392.998779 
	C252.656647,392.994476 249.099060,390.313568 249.014999,385.130707 
	C248.930069,379.895142 252.534073,377.006989 259.254120,377.002777 
	C279.574677,376.990082 299.895294,377.014587 320.215790,376.987915 
	C324.856689,376.981812 327.868439,379.102295 328.866608,383.624237 
	C329.716766,387.475861 327.237885,391.477844 323.434540,392.613007 
	C322.190186,392.984436 320.806641,392.966461 319.484650,392.985657 
	C316.154114,393.033966 312.822388,393.001984 308.992676,393.002197 
z"/>
<path fill="#030101" opacity="1.000000" stroke="none" 
	d="
M209.040329,376.994598 
	C214.528915,376.995819 219.526978,376.910126 224.520584,377.022400 
	C229.635956,377.137451 232.935516,380.308685 232.983276,384.909149 
	C233.031006,389.507751 229.726791,392.883453 224.693756,392.966492 
	C216.868668,393.095581 209.038040,393.102539 201.213287,392.963318 
	C196.192535,392.874023 192.918564,389.448120 193.011765,384.824951 
	C193.100647,380.415009 196.291656,377.256042 201.054764,377.021973 
	C203.546890,376.899506 206.049805,376.996643 209.040329,376.994598 
z"/>
<path fill="#020202" opacity="1.000000" stroke="none" 
	d="
M84.012787,465.003998 
	C80.187447,465.001984 76.856544,465.084747 73.531693,464.978333 
	C68.421066,464.814728 65.092674,461.675537 65.022720,457.118439 
	C64.952515,452.545013 68.268333,449.076965 73.285156,449.043427 
	C89.093384,448.937683 104.903214,448.937653 120.711441,449.043427 
	C125.718330,449.076904 129.050262,452.562927 128.975815,457.124451 
	C128.901428,461.681702 125.570160,464.921967 120.454201,464.965912 
	C108.473549,465.068817 96.491447,465.002045 84.012787,465.003998 
z"/>
<path fill="#060606" opacity="1.000000" stroke="none" 
	d="
M150.878845,449.247162 
	C154.619064,449.090302 157.959274,448.873718 161.277954,449.053741 
	C165.924576,449.305817 169.092987,452.804596 168.984863,457.193817 
	C168.881866,461.374634 165.801315,464.610443 161.381790,464.952484 
	C159.062149,465.131989 156.715302,464.926697 154.386536,465.028229 
	C149.823959,465.227112 146.402344,463.402374 145.270721,458.939453 
	C144.134796,454.459564 146.243164,451.206238 150.878845,449.247162 
z"/>
<path fill="#E9E9E7" opacity="1.000000" stroke="none" 
	d="
M358.538574,225.500854 
	C352.429871,233.926514 344.953949,240.152771 335.689636,244.054245 
	C330.710175,246.151230 328.845764,249.588043 328.918121,254.958511 
	C329.140045,271.430878 328.998871,287.908112 328.998871,304.690735 
	C321.075165,304.690735 313.339294,304.690735 305.001160,304.690735 
	C305.001160,297.536926 305.023315,290.274597 304.994476,283.012482 
	C304.969208,276.641144 302.117920,273.077454 297.080017,273.023499 
	C292.023529,272.969360 289.036438,276.562714 289.006683,282.842896 
	C288.972809,289.998535 288.998840,297.154480 288.998840,304.654297 
	C281.151398,304.654297 273.413513,304.654297 265.001190,304.654297 
	C265.001190,297.621552 265.020660,290.368439 264.995361,283.115509 
	C264.972992,276.703247 262.190399,273.139923 257.183044,273.023529 
	C251.956329,272.902008 249.023865,276.540253 249.003616,283.239655 
	C248.982086,290.358856 248.998795,297.478180 248.998795,304.794617 
	C240.981842,304.794617 233.364594,304.794617 225.001205,304.794617 
	C225.001205,297.706818 225.065552,290.461700 224.958496,283.219116 
	C224.929718,281.272064 224.773254,279.153351 223.986893,277.427094 
	C222.338181,273.807770 219.111267,272.356018 215.310745,273.225037 
	C211.313721,274.139008 209.059647,276.928284 209.027222,281.137604 
	C208.967194,288.931976 209.010056,296.727173 209.010056,304.758179 
	C200.934189,304.758179 193.200394,304.758179 185.001236,304.758179 
	C185.001236,289.712494 185.001434,274.771851 185.001144,259.831207 
	C185.000946,249.676758 184.637512,249.171051 175.076675,246.010452 
	C150.906601,238.020416 134.918137,213.688202 137.174850,188.329269 
	C139.467850,162.562820 158.783325,141.751999 184.127457,137.854645 
	C187.402191,137.351059 190.787460,136.824493 194.047028,137.122772 
	C200.279938,137.693130 203.704468,135.219437 206.330948,129.489853 
	C213.526459,113.793114 225.767319,103.532539 242.466858,99.006302 
	C268.869446,91.850159 296.339661,104.648811 307.711029,129.490829 
	C309.985352,134.459366 312.950012,136.729889 318.488770,137.372162 
	C361.651978,142.377136 382.772583,188.646271 358.538574,225.500854 
M267.351990,227.207413 
	C259.199463,227.207504 251.031113,226.918335 242.902954,227.363464 
	C240.029678,227.520798 236.532257,228.751114 234.562210,230.729065 
	C226.872009,238.449997 218.093903,244.024979 207.615341,247.061935 
	C202.420731,248.567490 199.967133,252.814697 201.288452,257.220245 
	C202.630066,261.693481 207.136108,264.251343 212.041168,262.317657 
	C219.402695,259.415588 227.782333,257.207703 233.366119,252.114227 
	C242.403000,243.870911 252.184158,242.176971 263.371277,243.286362 
	C264.030273,243.351715 264.766968,243.113770 265.355438,243.326706 
	C267.714386,244.180344 270.492432,244.622986 272.281250,246.177597 
	C280.689484,253.484955 290.014160,258.994141 300.742493,262.067993 
	C306.791443,263.801086 311.049500,262.125854 312.615936,257.414429 
	C314.169189,252.742691 311.556305,248.719421 305.601715,246.865997 
	C296.398315,244.001358 288.018829,239.604233 281.511414,232.460556 
	C277.770966,228.354370 273.639069,226.613144 267.351990,227.207413 
z"/>
<path fill="#CBCBCB" opacity="1.000000" stroke="none" 
	d="
M205.000336,336.996796 
	C198.196457,336.996796 191.892456,336.996796 185.297424,336.996796 
	C185.297424,331.679352 185.297424,326.617249 185.297424,321.276672 
	C233.004761,321.276672 280.706207,321.276672 328.702484,321.276672 
	C328.702484,326.320435 328.702484,331.382507 328.702484,336.996796 
	C287.632294,336.996796 246.566254,336.996796 205.000336,336.996796 
z"/>
<path fill="#040404" opacity="1.000000" stroke="none" 
	d="
M267.826355,227.207413 
	C273.639069,226.613144 277.770966,228.354370 281.511414,232.460556 
	C288.018829,239.604233 296.398315,244.001358 305.601715,246.865997 
	C311.556305,248.719421 314.169189,252.742691 312.615936,257.414429 
	C311.049500,262.125854 306.791443,263.801086 300.742493,262.067993 
	C290.014160,258.994141 280.689484,253.484955 272.281250,246.177597 
	C270.492432,244.622986 267.714386,244.180344 265.355438,243.326706 
	C264.766968,243.113770 264.030273,243.351715 263.371277,243.286362 
	C252.184158,242.176971 242.403000,243.870911 233.366119,252.114227 
	C227.782333,257.207703 219.402695,259.415588 212.041168,262.317657 
	C207.136108,264.251343 202.630066,261.693481 201.288452,257.220245 
	C199.967133,252.814697 202.420731,248.567490 207.615341,247.061935 
	C218.093903,244.024979 226.872009,238.449997 234.562210,230.729065 
	C236.532257,228.751114 240.029678,227.520798 242.902954,227.363464 
	C251.031113,226.918335 259.199463,227.207504 267.826355,227.207413 
z"/>
</svg>